<svg width="92.5mm" height="100mm" viewBox="0 0 92.499998 99.999999" xml:space="preserve" xmlns="http://www.w3.org/2000/svg"><path style="fill:#fff200;fill-opacity:1;stroke-width:.254" d="M119.92994 104.97171H-6.0120957L25.473417 50.437215 56.958924-4.09729l31.485505 54.534503Z" transform="matrix(.73446 0 0 .91685 4.4156729 3.75661)"/><g style="font-size:52.9167px;-inkscape-font-specification:sans-serif;text-align:center;text-anchor:middle;stroke-width:.190092"><path d="M48.998533 381.17531c7.234705 0 12.221483-2.91972 14.960336-8.73332l-9.043381-4.83175c-.981853 2.79053-3.126426 4.15996-6.459558 4.08244-4.857588-.0775-7.286382-3.22978-7.286382-9.43095 0-6.33037 2.713015-9.6635 7.286382-9.6635 3.333132 0 5.503543 1.47278 6.511234 4.44418l9.430955-3.97909c-2.583823-6.64043-7.725632-9.94772-15.399586-9.94772-5.71025 0-10.283617 1.73116-13.694263 5.21932-3.436485 3.48816-5.141808 8.13904-5.141808 13.92681 0 5.76192 1.705323 10.33529 5.11597 13.77178 3.384808 3.43648 7.958175 5.1418 13.720101 5.1418z" style="font-weight:800;font-family:'JT Leonor';-inkscape-font-specification:'JT Leonor, Ultra-Bold'" transform="translate(-1.1665749 -296.7019)" aria-label="C"/></g></svg>