<svg width="92.5mm" height="99.999992mm" viewBox="0 0 92.499998 99.999991" xml:space="preserve" xmlns="http://www.w3.org/2000/svg"><path style="fill:#009d97;fill-opacity:1;stroke-width:.254" d="M119.92994 104.97171H-6.0120957L25.473417 50.437215 56.958924-4.09729l31.485505 54.534503Z" transform="matrix(.73446 0 0 .91685 4.4156729 3.756601)"/><g style="font-size:42.3878px;-inkscape-font-specification:sans-serif;text-align:center;text-anchor:middle;fill:#fff;stroke-width:.190092"><path d="M25.057338 150.84964v29.67973h8.361656V170.1394h4.408496c3.270153 0 5.91939-.88998 7.927016-2.64924 2.007625-1.75926 3.001089-4.09804 3.001089-6.97495 0-2.8769-1.014161-5.21568-3.021787-6.99564-2.007625-1.77996-4.656862-2.66993-7.906318-2.66993zm8.361656 12.52178v-5.8573h4.408496c.972767 0 1.717865.28976 2.255992.88998.517429.60022.786492 1.26253.786492 1.98693 0 .7244-.248366 1.40741-.765795 2.02832-.517429.64161-1.283224.95207-2.276689.95207zm35.909584-5.77451c-2.876906-.10348-5.132897 1.13835-6.747276 3.72549v-3.24945h-8.361656v22.45642h8.361656v-10.26579c.269063-3.04249 1.345315-4.32571 3.72549-4.32571.683006 0 1.262527.20697 1.738562.60022l4.96732-8.09259c-1.014161-.51743-2.255991-.7865-3.684096-.84859z" style="font-weight:800;font-family:'JT Leonor';-inkscape-font-specification:'JT Leonor, Ultra-Bold'" transform="translate(-1.1665739 -96.701909)" aria-label="Pr"/></g></svg>