<svg width="92.499992mm" height="100mm" viewBox="0 0 92.499991 99.999999" xml:space="preserve" xmlns="http://www.w3.org/2000/svg"><path style="fill:#30b457;fill-opacity:1;stroke-width:.254" d="M119.92994 104.97171H-6.0120957L25.473417 50.437215 56.958924-4.09729l31.485505 54.534503Z" transform="matrix(.73446 0 0 .91685 4.4156729 3.75660353)"/><g style="font-size:52.9167px;-inkscape-font-specification:sans-serif;text-align:center;text-anchor:middle;fill:#fff;stroke-width:.235649"><path d="M32.624187 43.208825v37.052024h10.438646V67.290057h5.503543c4.082441 0 7.389734-1.111044 9.896043-3.307294 2.506308-2.19625 3.746543-5.11597 3.746543-8.707484 0-3.591514-1.266073-6.511234-3.772381-8.733322-2.506309-2.222088-5.813603-3.333132-9.870205-3.333132zm10.438646 15.63213v-7.31222h5.503543c1.214397 0 2.144573.361736 2.816367 1.111044.645956.749309.981853 1.576132.981853 2.480471 0 .904338-.310059 1.756999-.956014 2.532146-.645956.800985-1.601971 1.188559-2.842206 1.188559z" style="font-weight:800;font-family:'JT Leonor';-inkscape-font-specification:'JT Leonor, Ultra-Bold'" transform="translate(-1.1665762 3.5666247)" aria-label="P"/></g></svg>