<svg width="92.5mm" height="100mm" viewBox="0 0 92.499998 99.999999" xml:space="preserve" xmlns="http://www.w3.org/2000/svg"><path style="fill:#ee2c5d;fill-opacity:1;stroke-width:.254" d="M119.92994 104.97171H-6.0120957L25.473417 50.437215 56.958924-4.09729l31.485505 54.534503Z" transform="matrix(.73446 0 0 .91685 4.4156729 3.75661)"/><g style="font-size:52.9167px;-inkscape-font-specification:sans-serif;text-align:center;text-anchor:middle;fill:#fcffff;stroke-width:.190092"><path d="M32.268278 274.71576c1.937867 1.98954 4.289146 3.59151 7.079675 4.75423 2.790529 1.16272 5.710249 1.73116 8.733322 1.70532 4.108279-.0775 7.389735-1.26607 9.844367-3.53983 2.454632-2.27377 3.617352-5.21933 3.488161-8.86252-.129191-3.30729-1.705323-5.99447-3.384808-7.54476-.852662-.74931-1.989544-1.44694-3.462323-2.0929-1.47278-.62012-2.661338-1.0852-3.617353-1.36942-.956014-.28422-2.247926-.62012-3.824058-.95602-2.299603-.49093-3.436485-1.31775-3.436485-2.48047 0-1.2144 1.136882-2.04122 2.971397-2.11873 2.868043-.18087 6.304528.8785 10.309454 3.12642l3.875735-7.98401c-4.314985-2.91972-9.043381-4.34082-14.236866-4.23747-4.108279.0775-7.389734 1.2144-9.844366 3.41065-2.454632 2.19624-3.617352 5.03845-3.436485 8.50077.129191 3.10059 1.705323 5.63274 3.35897 7.15719.826824.74931 1.937868 1.44694 3.333132 2.0929 1.395265.64596 2.557985 1.08521 3.462323 1.36943.904338.28422 2.092897.62011 3.539838.95601 2.816367.72347 3.79822 1.39527 3.927411 2.60966.103353 1.2144-.852661 2.04122-2.868044 2.4288-3.539837.67179-7.260543-.85267-11.162116-4.59921z" style="font-weight:800;font-family:'JT Leonor';-inkscape-font-specification:'JT Leonor, Ultra-Bold'" transform="translate(-1.1665744 -196.7019)" aria-label="S"/></g></svg>