<svg xmlns="http://www.w3.org/2000/svg" width="207.1664" height="61.88665" viewBox="0 0 54.812773 16.374176">
  <path d="M92.701347 160.49467h2.454628v7.92198h-1.818922v-5.3273l-2.326923 5.3273-2.448983-5.334v5.334h-1.697214v-7.92198h2.426053l1.749072 4.10034zm3.35915 0v7.92198h4.570943v-1.34303H97.8325v-2.01542h2.68323v-1.35572H97.8325v-1.81751h2.79894v-1.3903zm11.388373 3.9624c0 2.94887 3.07763 5.3086 6.32037 3.73027v-1.69721c-2.4952 1.74801-4.66725-.004-4.63162-1.96533.0243-1.30351.90028-2.54317 2.59468-2.63983.83326-.0473 1.3977.15981 2.03694.77187v-1.76494c-2.34315-1.38854-6.32037.1397-6.32037 3.56517m7.06825 3.95958h1.68487v-7.84578h-1.68487zm3.79907-4.24815 2.546-3.58034h-1.9678l-2.52236 3.57363 2.92841 4.25486h1.93216z" style="fill:#231f20;fill-opacity:1;fill-rule:nonzero;stroke:none;stroke-width:.35277778" transform="translate(-66.68440855 -156.26892685)"/>
  <path transform="translate(-66.68440855 -156.26892685) scale(.26458)" d="M383.31641 606.59375v29.94141h6.7207v-16.08594l11.10937 16.08594h7.16407l-8.79493-12.57227c4.076-1.54137 5.39844-4.95902 5.39844-8.375 0-3.41337-2.86531-8.99414-9.80664-8.99414zm6.7207 4.98242h2.93359c4.9598 0 5.22461 3.24243 5.22461 4.45313 0 2.31329-1.96275 4.2832-4.49609 4.2832h-3.66211z" style="fill:#231f20;fill-opacity:1;fill-rule:nonzero;stroke:none;stroke-width:1.33333337"/>
  <path d="M70.909982 160.49485c0-2.18793 1.773767-3.96134 3.961342-3.96134 2.18828 0 3.961341 1.77341 3.961341 3.96134zm0 7.92233c0-2.18757 1.773767-3.96134 3.961342-3.96134-2.187575 0-3.961342-1.77306-3.961342-3.96099-2.187575 0-3.960989 1.77341-3.960989 3.96099 0 2.18828 1.773414 3.96134 3.960989 3.96134m0 0c0 2.18828 1.773767 3.96134 3.961342 3.96134 2.18828 0 3.961341-1.77306 3.961341-3.96134zm3.961342-3.96134c2.18828 0 3.961341 1.77377 3.961341 3.96134 2.187928 0 3.961695-1.77306 3.961695-3.96134 0-2.18758-1.773767-3.96099-3.961695-3.96099 0 2.18793-1.773061 3.96099-3.961341 3.96099" style="fill:#007a73;fill-opacity:1;fill-rule:nonzero;stroke:none;stroke-width:.35277778" transform="translate(-66.68440855 -156.26892685)"/>
</svg>
